<svg width="25" height="23" viewBox="0 0 25 23" fill="none" xmlns="http://www.w3.org/2000/svg">
<path fill-rule="evenodd" clip-rule="evenodd" d="M8.31699 0.528984C11.0311 -0.176328 13.8804 -0.176328 16.5946 0.528984L17.0463 0.646366C21.809 1.88406 24.9956 6.36275 24.6036 11.2681L24.5219 12.2902C24.268 15.4679 22.2511 18.2337 19.3032 19.4469C18.9568 19.5895 18.6658 19.8401 18.4736 20.1615L17.7908 21.3027C17.4979 21.7924 17.0332 22.1556 16.4872 22.3217L16.4559 22.3312C16.3522 22.3628 16.2438 22.3765 16.1355 22.3718C15.6197 22.3494 15.1821 21.9858 15.0656 21.4828L15.0425 21.3834C14.9413 20.9464 14.3213 20.9398 14.2108 21.3747L14.1925 21.4467C14.0567 21.9816 13.6064 22.3781 13.0587 22.4454L12.6899 22.4906C12.5631 22.5062 12.4348 22.5062 12.308 22.4906L11.8975 22.4402C11.3749 22.3761 10.9453 21.9977 10.8157 21.4874L10.7899 21.3859C10.6846 20.9711 10.0901 20.9866 10.0064 21.4063L9.99317 21.4729C9.89241 21.9784 9.45938 22.3496 8.94444 22.372C8.839 22.3766 8.73355 22.3632 8.63259 22.3325L8.59094 22.3198C8.04754 22.1545 7.58142 21.7999 7.27718 21.3202L6.54764 20.1701C6.34039 19.8433 6.03187 19.5934 5.66921 19.4586C2.42591 18.2523 0.215736 15.2266 0.0530215 11.77L0.0111581 10.8807C-0.210898 6.16362 2.90238 1.93607 7.47292 0.748331L8.31699 0.528984ZM6.23486 12.3111C8.06312 12.3111 9.54522 10.829 9.54522 9.00075C9.54522 7.17248 8.06312 5.69038 6.23486 5.69038C4.4066 5.69038 2.9245 7.17248 2.9245 9.00075C2.9245 10.829 4.4066 12.3111 6.23486 12.3111ZM18.6767 12.3111C20.505 12.3111 21.9871 10.829 21.9871 9.00075C21.9871 7.17249 20.505 5.69039 18.6767 5.69039C16.8484 5.69039 15.3663 7.17249 15.3663 9.00075C15.3663 10.829 16.8484 12.3111 18.6767 12.3111Z" fill="white"/>
</svg>
